<?xml version="1.0" standalone="no"?>
<!DOCTYPE svg PUBLIC "-//W3C//DTD SVG 1.1//EN" "http://www.w3.org/Graphics/SVG/1.1/DTD/svg11.dtd" >
<svg xmlns="http://www.w3.org/2000/svg">
<metadata>Generated by IcoMoon</metadata>
<defs>
<font id="icomoon" horiz-adv-x="1024">
<font-face units-per-em="1024" ascent="960" descent="-64" />
<missing-glyph horiz-adv-x="1024" />
<glyph unicode="&#x20;" horiz-adv-x="512" d="" />
<glyph unicode="&#xe900;" horiz-adv-x="1526" d="M1383.027-64h-1240.503c-78.681 0-142.524 63.843-142.524 142.524v738.952c0 78.681 63.843 142.524 142.524 142.524h1240.607c78.576 0 142.42-63.843 142.42-142.524v-739.056c0-78.576-63.843-142.42-142.524-142.42z" />
<glyph unicode="&#xe901;" horiz-adv-x="1526" d="M625.476 672.34h274.599v-448.575h-274.599v448.575z" />
<glyph unicode="&#xe902;" horiz-adv-x="1526" d="M653.793 448c-0.104 87.458 40.124 170.214 108.983 224.235-123.82 97.384-303.229 75.86-400.509-48.065s-75.86-303.229 48.065-400.509c103.445-81.293 249.104-81.293 352.549 0-68.963 54.021-109.192 136.777-109.087 224.34z" />
<glyph unicode="&#xe903;" horiz-adv-x="1526" d="M1197.035 271.203v9.195h3.971v1.881h-9.404v-1.881h3.762v-9.195h1.672zM1215.425 271.203v11.076h-2.821l-3.344-7.941-3.344 7.941h-2.821v-11.076h2.090v8.359l3.135-7.21h2.090l3.135 7.21v-8.359h1.881z" />
<glyph unicode="&#xe904;" horiz-adv-x="1526" d="M1224.307 448c0-157.571-127.687-285.257-285.257-285.257-63.948 0-126.015 21.525-176.274 61.022 123.82 97.384 145.345 276.689 48.065 400.509-14.002 17.868-30.198 33.959-48.065 48.065 123.82 97.384 303.229 75.86 400.509-47.961 39.602-50.26 61.022-112.327 61.022-176.379v0z" />
<glyph unicode="&#xe905;" glyph-name="My-cards-ico" d="M671.646 287.882c-10.863 0-19.838-8.974-19.838-19.838s8.974-19.838 19.838-19.838c10.863 0 19.838 8.974 19.838 19.838 0 11.336-8.974 19.838-19.838 19.838zM399.587 308.192c-10.863 0-19.838 8.974-19.838 19.838s8.974 19.838 19.838 19.838c7.085 0 14.642-3.779 21.727-10.391 8.030-7.557 20.782-7.557 28.339 0.472s7.557 20.782-0.472 28.339c-9.919 9.919-20.31 15.587-29.284 18.421v23.144c0 10.863-8.974 19.838-19.838 19.838s-19.838-8.974-19.838-19.838v-23.616c-23.144-8.030-40.148-30.701-40.148-56.679 0-33.063 26.923-59.985 59.985-59.985 10.863 0 19.838-8.974 19.838-19.838s-8.974-19.838-20.31-19.838c-8.502 0-17.948 5.196-25.978 15.114-7.085 8.502-19.838 9.446-28.339 2.362s-9.446-19.838-2.362-28.339c10.863-12.753 23.144-21.727 36.369-25.978v-23.144c0-10.863 8.974-19.838 19.838-19.838s19.838 8.974 19.838 19.838v23.616c23.144 8.030 40.148 30.701 40.148 56.679 0.472 33.063-26.45 59.985-59.513 59.985zM239.941 747.926c-10.863 0-19.838-8.974-19.838-19.838v-79.823c0-10.863 8.974-19.838 19.838-19.838s19.838 8.974 19.838 19.838v79.823c0 10.863-8.974 19.838-19.838 19.838zM943.232 488.148v160.118c0 55.262-44.871 100.133-100.133 100.133h-111.941v151.616c0 33.063-26.923 59.985-59.985 59.985h-371.247c-33.063 0-59.985-26.923-59.985-59.985v-71.793h-59.985c-33.063 0-59.985-26.923-59.985-59.985v-19.838h-19.838c-55.262-0.472-100.133-45.343-100.133-100.133v-611.661c0-55.262 44.871-100.133 100.133-100.133h611.661c48.177 0 88.797 34.48 97.771 79.823h34.007c55.262 0 100.133 44.871 100.133 100.133v51.956h19.838c33.063 0 59.985 26.923 59.985 59.985v179.956c0 43.926-35.897 79.823-80.295 79.823zM731.631 708.251h111.941c33.063 0 59.985-26.923 59.985-59.985v-280.089h-92.103v119.97c0 48.177-34.48 88.797-79.823 97.771v122.332zM279.616 900.015c0 10.863 8.974 19.838 19.838 19.838h371.72c10.863 0 19.838-8.974 19.838-19.838v-311.734h-91.159v179.956c0 33.063-26.923 59.985-59.985 59.985h-259.779v71.793zM559.705 768.236v-179.956h-79.823v199.793h59.985c10.863 0 19.838-8.974 19.838-19.838zM439.734 788.074v-199.793h-79.823v199.793h79.823zM160.118 768.236c0 10.863 8.974 19.838 19.838 19.838h139.808v-199.793h-159.646v179.956zM100.133 708.251h19.838v-119.97h-15.587c-33.063 0-64.236 24.089-64.236 59.985 0 33.063 26.923 59.985 59.985 59.985zM771.306 36.133c0-33.063-26.923-59.985-59.985-59.985h-611.188c-33.063 0-59.985 26.923-59.985 59.985v533.255c17.476-13.225 40.148-21.255 64.236-21.255h607.41c33.063 0 59.985-26.923 59.985-59.985v-119.97h-139.808c-33.063 0-59.985-26.923-59.985-59.985v-79.823c0-33.063 26.923-59.985 59.985-59.985h139.808v-132.251zM903.557 115.956c0-33.063-26.923-59.985-59.985-59.985h-32.118v111.941h92.103v-51.956zM983.38 227.897c0-10.863-8.974-19.838-19.838-19.838h-331.572c-10.863 0-19.838 8.974-19.838 19.838v80.295c0 10.863 8.974 19.838 19.838 19.838h311.734c14.17 0 27.867 3.779 40.148 10.863v-110.996zM943.232 368.177v79.823c22.199 0 40.148-17.948 40.148-40.148 0-21.727-17.948-39.675-40.148-39.675zM843.572 287.882h-92.103c-10.863 0-19.838-8.974-19.838-19.838s8.974-19.838 19.838-19.838h92.103c10.863 0 19.838 8.974 19.838 19.838 0 11.336-8.974 19.838-19.838 19.838z" />
<glyph unicode="&#xe906;" glyph-name="My-travelers-ico" horiz-adv-x="742" d="M511.656 960h-511.656v-1024h742.004v775.059l-230.348 248.941zM520.952 901.81l166.994-180.767h-166.994v180.767zM710.327-29.913h-678.65v955.825h457.598v-238.956h221.052v-716.869zM442.104 328.522c8.608 0 15.839 7.575 15.839 17.216 0 9.297-7.231 17.216-15.839 17.216h-268.568c-8.608 0-15.839-7.575-15.839-17.216 0-9.297 7.231-17.216 15.839-17.216h268.568zM473.436 430.784c0-9.297 7.231-17.216 15.839-17.216h110.526c8.608 0 15.839 7.575 15.839 17.216s-7.231 17.216-15.839 17.216h-110.526c-8.608 0-15.839-7.575-15.839-17.216zM236.89 430.784c0-9.297 7.231-17.216 15.839-17.216h157.697c8.608 0 15.839 7.575 15.839 17.216s-7.231 17.216-15.839 17.216h-158.042c-8.608 0-15.494-7.575-15.494-17.216zM162.518 443.18c-2.755-3.099-4.476-7.575-4.476-12.051s1.722-8.952 4.476-12.051c2.755-3.443 6.886-5.165 11.018-5.165s8.264 1.722 11.018 4.82c2.755 3.099 4.476 7.575 4.476 12.051s-1.722 8.952-4.476 12.051c-5.509 6.542-16.527 6.198-22.036 0.344zM509.59 357.789c-2.755-3.099-4.476-7.575-4.476-12.051s1.722-8.952 4.476-12.051c3.099-3.099 7.231-4.82 11.018-4.82 4.132 0 8.264 1.722 11.018 4.82 3.099 3.099 4.476 7.575 4.476 12.051s-1.722 8.952-4.476 12.051c-5.509 6.198-15.839 6.198-22.036 0zM588.783 357.789c-2.755-3.099-4.476-7.575-4.476-12.051s1.722-8.952 4.476-12.051c3.099-3.099 7.231-4.82 11.018-4.82 4.132 0 8.264 1.722 11.018 5.165 3.099 3.099 4.476 7.575 4.476 12.051s-1.722 8.952-4.476 12.051c-5.853 5.853-16.183 5.853-22.036-0.344zM260.993 274.464c-34.776-19.626-46.139-56.812-50.615-95.376-6.542 5.853-13.084 11.707-19.626 17.905-15.494 14.117-37.875-9.985-22.381-24.102 14.806-13.428 29.611-26.512 44.417-39.941 10.33-9.297 26.512-3.443 26.857 12.051 1.377 36.842 2.755 80.57 37.186 99.852 17.905 10.33 2.066 39.941-15.839 29.611zM472.748 207.322c-23.069 1.722-56.812-36.842-74.373-2.41-4.132 7.919-14.461 10.674-21.692 6.198-22.381-14.806-51.648-36.153-75.061-8.608-13.773 16.183-36.153-7.919-22.381-24.102 29.611-34.776 67.486-24.102 100.885-4.476 7.575-9.297 16.872-15.839 28.923-18.593 12.395-2.755 63.699 19.626 66.109 15.494 12.051-17.56 39.252-0.689 27.201 17.216-7.575 11.707-15.15 18.249-29.611 19.282zM349.826 550.951l10.674 8.264-5.509 12.74c-4.82 11.707-12.74 20.659-22.725 26.168l-33.399 18.593c15.15 10.674 26.512 26.512 33.054 47.86 10.674 7.231 17.56 19.626 17.56 33.743v11.362c0 11.707-4.476 22.381-12.395 29.956-5.853 32.366-26.168 67.142-87.801 67.142-2.41 0-4.82 0-7.231-0.344-8.264-0.689-20.315 0-30.644 7.575-4.476 3.443-6.886 6.198-8.264 7.919-4.82 6.886-13.084 9.297-20.659 5.853s-12.051-11.362-11.018-20.315c0.344-4.132 1.033-9.297 2.066-14.806 1.377-7.231 1.377-9.297 1.377-9.641 0-0.689-1.033-2.755-1.722-4.476-1.033-2.755-2.41-5.853-4.132-9.985-3.443-8.952-5.853-18.937-7.231-29.267-7.919-7.575-12.395-18.249-12.395-29.611v-11.362c0-14.117 6.886-26.857 17.56-33.743 6.542-21.348 17.56-37.186 33.054-47.86l-34.776-18.593c-9.641-5.853-17.216-14.806-22.036-26.168l-5.165-12.74 10.33-7.919c29.611-23.069 64.387-35.12 100.885-35.12 36.153 0 70.929 12.051 100.541 34.776zM181.8 569.2l38.564 20.659c8.264 4.476 13.084 13.084 13.084 23.069v24.102l-9.297 4.476c-14.461 6.542-23.758 19.626-28.578 39.597l-2.41 8.952-8.264 3.099c-2.066 0.344-3.787 2.41-3.787 5.165v11.362c0 2.41 1.377 4.132 3.099 4.82l7.231 4.476 0.689 8.952c1.033 9.985 3.099 19.282 6.198 27.545 1.377 3.787 2.41 6.198 3.443 8.608 2.41 5.853 4.132 9.985 4.476 14.461 11.362-5.165 24.447-7.231 38.564-6.198 1.722 0.344 3.099 0.344 4.476 0.344 46.139 0 54.746-22.725 57.157-45.106l1.033-8.608 7.575-4.132c1.377-1.033 2.755-2.755 2.755-5.165v-11.362c0-2.755-2.066-4.82-3.787-5.165l-8.264-3.099-2.066-8.952c-5.165-19.97-14.461-33.054-28.923-39.597l-9.641-4.476v-24.447c0-9.641 5.165-18.593 13.084-23.069l38.219-21.003c-41.318-24.102-93.31-23.758-134.628 0.689z" />
<glyph unicode="&#xe907;" d="M1024 448c0-282.77-229.23-512-512-512s-512 229.23-512 512c0 282.77 229.23 512 512 512s512-229.23 512-512z" />
<glyph unicode="&#xe908;" d="M716.117 684.772l-294.002-293.888-114.233 114.233-89.884-89.884 204.117-204.004 383.886 383.772-89.884 89.771z" />
<glyph unicode="&#xe909;" glyph-name="Remove-payment-ico" horiz-adv-x="1304" d="M677.181 330.249c0 10.623-8.528 19.151-19.151 19.151h-496.29c-10.623 0-19.151-8.528-19.151-19.151s8.528-19.151 19.151-19.151h496.29c10.473 0 19.151 8.528 19.151 19.151v0zM161.739 256.636c-10.623 0-19.151-8.528-19.151-19.151s8.528-19.151 19.151-19.151h330.66c10.623 0 19.151 8.528 19.151 19.151s-8.528 19.151-19.151 19.151h-330.66zM1037.017 960c-63.14 0-124.484-22.443-172.662-63.289-8.079-6.883-9.127-18.852-2.244-26.932s19.002-9.127 27.081-2.244c41.295 34.861 93.812 54.162 147.974 54.162 126.279 0 229.068-102.789 229.068-229.068s-102.789-229.068-229.068-229.068c-126.579-0.15-229.218 102.639-229.218 229.068 0 39.051 10.025 77.653 29.026 111.617 5.087 9.276 1.795 20.947-7.331 26.034-9.276 5.237-20.947 1.795-26.034-7.331-16.907-30.373-27.829-63.888-31.869-98.45h-709.499c-34.263 0-62.242-27.979-62.242-62.242v-664.014c0-34.263 27.979-62.242 62.242-62.242h135.107c10.623 0 19.151 8.528 19.151 19.151s-8.528 19.151-19.151 19.151h-135.107c-13.167 0-23.939 10.773-23.939 23.939v97.403h1075.469v-97.403c0-13.167-10.773-23.939-23.939-23.939h-804.956c-10.623 0-19.151-8.528-19.151-19.151s8.528-19.151 19.151-19.151h805.106c34.263 0 62.242 27.979 62.242 62.242v237.597c0 10.623-8.528 19.151-19.151 19.151s-19.151-8.528-19.151-19.151v-101.891h-1075.619v528.309c0 13.167 10.773 23.939 23.939 23.939h707.404c3.441-144.533 122.090-261.087 267.371-261.087 26.782 0 52.517 3.89 76.905 11.222v-111.916c0-10.623 8.528-19.151 19.151-19.151s19.151 8.528 19.151 19.151v126.728c89.922 43.091 152.313 135.107 152.313 241.337-0.15 147.525-120.145 267.521-267.521 267.521v0zM960.411 780.456c3.741 0 7.331-1.347 10.174-4.189l60.895-60.895c2.843-2.843 6.434-4.189 10.174-4.189s7.331 1.347 10.174 4.189l60.895 60.895c2.693 2.843 6.434 4.189 10.025 4.189s7.331-1.347 10.174-4.189c5.536-5.536 5.536-14.663 0-20.348l-60.895-60.895c-5.536-5.536-5.536-14.663 0-20.348l60.895-60.895c5.536-5.536 5.536-14.663 0-20.348-2.843-2.843-6.434-4.189-10.174-4.189s-7.331 1.347-10.174 4.189l-60.895 60.895c-2.843 2.843-6.434 4.189-10.174 4.189s-7.331-1.347-10.174-4.189l-60.895-60.895c-2.843-2.843-6.434-4.189-10.174-4.189s-7.331 1.347-10.174 4.189v0c-5.536 5.536-5.536 14.663 0 20.348l60.895 60.895c5.536 5.536 5.536 14.663 0 20.348l-60.895 60.895c-5.536 5.536-5.536 14.663 0 20.348v0c2.992 2.843 6.733 4.189 10.324 4.189zM960.411 810.38c0 0 0 0 0 0-11.82 0-22.892-4.638-31.271-13.017s-13.017-19.451-13.017-31.271c0-11.82 4.638-22.892 13.017-31.271l49.823-49.823-49.823-49.823c-8.379-8.379-13.017-19.451-13.017-31.271s4.638-22.892 13.017-31.271c8.379-8.379 19.451-13.017 31.271-13.017s22.892 4.638 31.271 13.017l49.823 49.823 49.823-49.823c8.379-8.379 19.451-13.017 31.271-13.017s22.892 4.638 31.271 13.017c8.379 8.379 13.017 19.451 13.017 31.271s-4.638 22.892-13.017 31.271l-49.823 49.823 49.823 49.823c8.379 8.379 13.017 19.451 13.017 31.271s-4.638 22.892-13.017 31.271c-8.379 8.379-19.451 13.017-31.271 13.017s-22.892-4.638-31.271-13.017l-49.823-49.823-49.823 49.823c-8.229 8.379-19.451 13.017-31.271 13.017v0 0z" />
<glyph unicode="&#xe90a;" horiz-adv-x="1526" d="M1383.027-64h-1240.503c-78.681 0-142.524 63.843-142.524 142.524v738.952c0 78.681 63.843 142.524 142.524 142.524h1240.607c78.576 0 142.42-63.843 142.42-142.524v-739.056c0-78.576-63.843-142.42-142.524-142.42z" />
<glyph unicode="&#xe90b;" horiz-adv-x="1526" d="M576.366 282.279l57.992 342.727h93.936l-57.992-342.727z" />
<glyph unicode="&#xe90c;" horiz-adv-x="1526" d="M1004.774 616.124c-18.599 6.896-47.752 14.42-84.219 14.42-92.891 0-158.302-46.498-158.824-113.058-0.522-49.215 46.707-76.696 82.338-93.1 36.571-16.718 48.901-27.481 48.692-42.527-0.209-22.988-29.257-33.437-56.216-33.437-37.616 0-57.574 5.224-88.503 17.972l-12.121 5.433-13.166-76.696c21.943-9.613 62.589-17.868 104.699-18.286 98.743 0 162.9 45.976 163.631 117.133 0.313 38.975-24.66 68.65-78.89 93.1-32.81 15.882-52.976 26.436-52.767 42.527 0 14.211 17.032 29.466 53.812 29.466 30.72 0.522 52.976-6.165 70.322-13.166l8.359-3.971 12.852 74.188z" />
<glyph unicode="&#xe90d;" horiz-adv-x="1526" d="M1164.957 625.006c-22.465 0-38.766-6.896-48.692-29.153l-139.18-313.574h99.474l19.331 52.558h118.909l11.076-52.558h88.398l-77.427 342.727h-71.889zM1122.325 403.278c7.732 19.749 37.407 95.817 37.407 95.817-0.522-0.94 7.732 19.853 12.434 32.705l6.374-29.571c0 0 17.972-81.816 21.734-98.952h-77.949z" />
<glyph unicode="&#xe90e;" horiz-adv-x="1526" d="M405.002 390.008l-8.255 47.020c-17.136 54.753-70.322 113.998-129.985 143.673l83.069-298.527h99.474l149.211 342.727h-99.474l-94.041-234.893z" />
<glyph unicode="&#xe90f;" horiz-adv-x="1526" d="M164.571 625.006v-5.538c117.864-28.317 199.784-99.997 232.176-182.439l-34.168 158.72c-5.642 21.734-22.883 28.526-43.363 29.257h-154.645z" />
<glyph unicode="&#xe910;" horiz-adv-x="1526" d="M1383.027-64h-1240.503c-78.681 0-142.524 63.843-142.524 142.524v738.952c0 78.681 63.843 142.524 142.524 142.524h1240.607c78.576 0 142.42-63.843 142.42-142.524v-739.056c0-78.576-63.843-142.42-142.524-142.42z" />
<glyph unicode="&#xe911;" horiz-adv-x="1526" d="M248.999 557.296h43.259l-21.629 55.171z" />
<glyph unicode="&#xe912;" horiz-adv-x="1526" d="M479.504 372.14v-25.6h72.934v-27.585h-72.934v-29.571h80.771l37.407 41.378-35.422 41.378z" />
<glyph unicode="&#xe913;" horiz-adv-x="1526" d="M1048.869 612.467l-23.615-55.171h45.349z" />
<glyph unicode="&#xe914;" horiz-adv-x="1526" d="M690.26 273.607v112.327l-51.2-55.171z" />
<glyph unicode="&#xe915;" horiz-adv-x="1526" d="M786.808 354.377c-1.985 11.807-9.822 17.763-21.734 17.763h-41.378v-35.422h43.363c11.912 0 19.749 5.851 19.749 17.659z" />
<glyph unicode="&#xe916;" horiz-adv-x="1526" d="M924.735 340.584c3.971 1.985 5.956 7.941 5.956 13.793 1.985 7.837-1.985 11.807-5.956 13.793s-9.822 1.985-15.778 1.985h-39.393v-31.556h39.393c5.956 0 11.807 0 15.778 1.985z" />
<glyph unicode="&#xe917;" horiz-adv-x="1526" d="M1208.424 663.771v-23.615l-11.807 23.615h-92.578v-23.615l-11.807 23.615h-126.119c-21.629 0-39.393-3.971-55.171-11.807v11.807h-88.607v-11.807c-9.822 7.837-21.629 11.807-37.407 11.807h-317.231l-21.734-49.215-21.629 49.215h-100.519v-23.615l-9.822 23.615h-86.727l-39.393-92.578-45.349-100.519-0.836-1.985h102.609l0.731 1.985 11.807 29.571h25.6l11.807-31.556h114.312v23.615l9.822-23.615h57.156l9.822 23.615v-23.615h273.868v51.2h3.971c3.971 0 3.971 0 3.971-5.956v-43.363h141.897v11.912c11.807-5.956 29.571-11.807 53.185-11.807h59.141l11.807 31.556h27.585l11.807-31.556h114.312v29.571l17.763-29.571h92.682v193.097h-88.921zM540.526 498.26h-31.556v108.356l-1.985-4.493v0.104l-45.871-103.863h-28.944l-47.334 108.356v-108.356h-66.978l-13.793 29.571h-66.978l-13.793-29.571h-34.586l58.305 137.927h49.215l55.171-131.971v131.866h52.14l0.94-1.985h0.104l24.869-54.126 17.868-40.542 0.627 2.090 39.393 94.563h53.185v-137.927zM676.467 606.616h-76.8v-25.6h74.919v-27.585h-74.919v-27.585h76.8v-29.571h-110.341v139.912h110.341v-29.571zM817.006 555.833c0 0 0.104-0.104 0.209-0.104 0.731-0.836 1.358-1.567 1.881-2.299 3.762-4.911 6.792-12.33 7.001-23.092 0-0.209 0-0.418 0-0.522s0-0.209 0-0.313c0-0.104 0-0.104 0-0.209 0-1.045 0.104-2.194 0.104-3.344v-27.585h-29.571v15.778c0 7.837 0 19.749-5.956 27.585-1.881 1.881-3.762 3.135-5.747 3.971-2.926 1.881-8.568 1.985-17.868 1.985h-35.527v-49.215h-33.437v137.927h74.919c17.763 0 29.571 0 39.393-5.956 9.613-5.747 15.464-15.36 15.673-30.616-0.418-21.002-13.897-32.496-23.615-36.362 0.104-0.209 6.687-1.567 12.539-7.628zM883.357 498.26h-33.541v137.927h33.541v-137.927zM1267.566 498.26h-43.363l-63.007 104.385v-86.727l-0.209 0.209v-18.077h-33.332v0.104h-33.541l-11.807 29.571h-68.963l-11.807-31.556h-37.407c-15.778 0-35.422 3.971-47.334 15.778-11.807 11.807-17.763 27.585-17.763 53.185 0 19.749 3.971 39.393 17.763 55.171 9.822 11.807 27.585 15.778 49.215 15.778h31.556v-29.571h-31.556c-11.807 0-17.763-1.985-25.6-7.837-5.851-5.956-9.822-17.763-9.822-31.556 0-15.778 1.985-25.6 9.822-33.541 5.956-5.956 13.793-7.941 23.615-7.941h13.793l45.349 108.356h49.319l55.171-131.971v131.971h49.215l57.156-96.549v96.549h33.541v-135.732z" />
<glyph unicode="&#xe918;" horiz-adv-x="1526" d="M788.898 578.717c0.627 0.627 1.045 1.358 1.567 2.090 1.776 2.821 3.866 7.941 2.717 14.838 0 0.627-0.209 1.254-0.313 1.776 0 0.209 0 0.313-0.104 0.418v0c-0.94 3.344-3.448 5.433-5.956 6.687-3.971 1.985-9.822 1.985-15.778 1.985h-39.393v-31.556h39.393c5.956 0 11.807 0 15.778 1.985 0.627 0.313 1.149 0.731 1.672 1.149v0c0 0.104 0.209 0.313 0.418 0.627z" />
<glyph unicode="&#xe919;" horiz-adv-x="1526" d="M1383.863 301.192c0 13.793-3.971 27.585-9.822 37.407v88.607h-0.104v5.956c0 0-82.547 0-94.877 0s-27.167-11.807-27.167-11.807v11.807h-90.593c-13.793 0-31.556-3.971-39.393-11.807v11.807h-161.646v-11.807c-11.807 9.822-33.541 11.807-43.363 11.807h-106.371v-11.807c-9.822 9.822-33.541 11.807-45.349 11.807h-118.178l-27.585-29.571-25.6 29.571h-177.319v-199.053h173.349l28.526 28.526 24.66-28.526h110.341v45.349h9.822c13.793 0 31.556 0 45.349 5.956v-53.185h88.712v51.2h3.971c5.956 0 5.956 0 5.956-5.956v-45.349h267.912c17.763 0 35.422 3.971 45.349 11.807v-11.807h84.741c17.763 0 35.422 1.985 47.334 9.822 18.181 10.867 29.571 30.198 31.242 53.081 0.104 0.731 0.209 1.358 0.209 2.090l-0.104 0.104c-0.104 1.463 0 2.717 0 3.971zM763.193 312.999h-39.393v-51.096h-64.784l-37.721 43.363-0.104-0.104-1.881 2.090-43.363-45.349h-126.015v137.927h128.104l42.318-46.393 1.045 1.045 41.378 45.349h104.385c20.271 0 42.945-5.016 51.513-25.6 1.045-4.075 1.672-8.673 1.672-13.793 0-39.497-27.585-47.438-57.156-47.438zM960.261 314.984c3.971-5.851 5.956-13.793 5.956-25.6v-27.585h-33.437v17.763c0 7.941 0 21.629-5.956 27.585-3.971 5.851-11.807 5.851-23.615 5.851h-35.422v-51.2h-33.541v139.912h74.815c15.778 0 29.571 0 39.393-5.956s17.763-15.778 17.763-31.556c0-21.629-13.793-33.437-23.615-37.407 9.718-3.866 15.673-7.837 17.659-11.807zM1096.202 372.14h-76.8v-25.6h74.919v-27.585h-74.919v-27.585h76.8v-29.571h-110.341v139.912h110.341v-29.571zM1178.958 261.799h-63.007v29.571h63.007c5.851 0 9.822 0 13.793 3.971 1.985 1.985 3.971 5.956 3.971 9.822 0 3.971-1.985 7.837-3.971 9.822s-5.956 3.971-11.807 3.971c-31.556 1.985-68.963 0-68.963 43.363 0 19.749 11.807 41.378 47.334 41.378h64.993v-33.437h-61.022c-5.956 0-9.822 0-13.793-1.985s-3.971-5.956-3.971-9.822c0-5.956 3.971-7.837 7.837-9.822 3.971-1.985 7.837-1.985 11.807-1.985h17.763c17.763 0 29.571-3.971 37.407-11.807 5.956-5.956 9.822-15.778 9.822-29.571 0-29.675-17.763-43.468-51.2-43.468zM1348.336 275.592c-7.837-7.941-21.629-13.793-41.378-13.793h-63.007v29.571h63.007c5.956 0 9.822 0 13.793 3.971 1.985 1.985 3.971 5.956 3.971 9.822 0 3.971-1.985 7.837-3.971 9.822s-5.956 3.971-11.807 3.971c-31.556 1.985-68.963 0-68.963 43.363 0 18.704 10.762 35.631 37.094 40.647 3.135 0.418 6.478 0.731 10.136 0.731h64.993v-33.437h-61.127c-5.956 0-9.822 0-13.793-1.985-1.985-1.985-3.971-5.956-3.971-9.822 0-5.956 1.985-7.837 7.941-9.822 3.971-1.985 7.837-1.985 11.807-1.985h17.763c8.568 0 15.151-1.045 21.107-3.135 5.433-1.985 23.51-10.031 27.585-31.138 0.313-2.194 0.627-4.493 0.627-7.105 0-11.912-3.866-21.734-11.807-29.675z" />
<glyph unicode="&#xe91a;" glyph-name="Default-card-ico" horiz-adv-x="1304" d="M677.181 330.249c0 10.623-8.528 19.151-19.151 19.151h-496.29c-10.623 0-19.151-8.528-19.151-19.151s8.528-19.151 19.151-19.151h496.29c10.473 0 19.151 8.528 19.151 19.151v0zM161.739 256.636c-10.623 0-19.151-8.528-19.151-19.151s8.528-19.151 19.151-19.151h330.66c10.623 0 19.151 8.528 19.151 19.151s-8.528 19.151-19.151 19.151h-330.66zM1037.017 960c-63.14 0-124.484-22.443-172.662-63.289-8.079-6.883-9.127-18.852-2.244-26.932s19.002-9.127 27.081-2.244c41.295 34.861 93.812 54.162 147.974 54.162 126.279 0 229.068-102.789 229.068-229.068s-102.789-229.068-229.068-229.068c-126.579-0.15-229.218 102.639-229.218 229.068 0 39.051 10.025 77.653 29.026 111.617 5.087 9.276 1.795 20.947-7.331 26.034-9.276 5.237-20.947 1.795-26.034-7.331-16.907-30.373-27.829-63.888-31.869-98.45h-709.499c-34.263 0-62.242-27.979-62.242-62.242v-664.014c0-34.263 27.979-62.242 62.242-62.242h135.107c10.623 0 19.151 8.528 19.151 19.151s-8.528 19.151-19.151 19.151h-135.107c-13.167 0-23.939 10.773-23.939 23.939v97.403h1075.469v-97.403c0-13.167-10.773-23.939-23.939-23.939h-804.956c-10.623 0-19.151-8.528-19.151-19.151s8.528-19.151 19.151-19.151h805.106c34.263 0 62.242 27.979 62.242 62.242v237.597c0 10.623-8.528 19.151-19.151 19.151s-19.151-8.528-19.151-19.151v-101.891h-1075.619v528.309c0 13.167 10.773 23.939 23.939 23.939h707.404c3.441-144.533 122.090-261.087 267.371-261.087 26.782 0 52.517 3.89 76.905 11.222v-111.916c0-10.623 8.528-19.151 19.151-19.151s19.151 8.528 19.151 19.151v126.728c89.922 43.091 152.313 135.107 152.313 241.337-0.15 147.525-120.145 267.521-267.521 267.521v0zM944.402 573.681c13.915-14.663 33.515-22.892 53.714-22.892 0.299 0 0.748 0 1.047 0 20.498 0.299 40.248 9.127 54.162 24.538l131.815 147.376c11.97 13.316 18.104 30.373 17.206 48.178s-8.678 34.263-21.994 46.233c-13.316 11.97-30.373 17.954-48.178 17.057s-34.263-8.678-46.233-22.144l-90.071-101.592-8.528 9.276c-24.388 27.081-66.282 29.326-93.363 4.788-13.466-12.119-21.096-28.727-21.845-46.681-0.598-17.954 5.835-35.161 18.403-48.327l53.863-55.808zM919.266 696.22c5.237 4.788 11.97 7.182 18.553 7.182 7.631 0 15.261-3.142 20.947-9.276l10.623-11.521c6.733-7.481 16.309-11.67 26.333-11.67s19.6 4.339 26.483 11.82l92.166 103.986c5.087 5.686 12.119 8.977 19.75 9.426s14.962-2.244 20.498-7.331c5.686-5.087 8.977-12.119 9.426-19.75s-2.244-14.962-7.331-20.648l-131.965-147.525c-6.733-7.481-16.009-11.67-26.184-11.82s-19.451 3.741-26.483 11.222l-54.312 55.958c-5.237 5.536-7.93 12.718-7.631 20.199 0.15 7.78 3.441 14.663 9.127 19.75v0z" />
<glyph unicode="&#xe91b;" glyph-name="My-Account-ico" d="M967.529 565.176h-95.059c-13.176 0-24.471 7.529-29.647 19.765s-2.353 25.412 7.059 34.824l67.294 67.294c10.824 10.824 16.471 24.941 16.471 40s-6.118 29.176-16.471 40l-85.647 85.647c-10.353 10.353-24.941 16-40 16s-29.647-6.118-40-16l-67.765-66.824c-6.118-6.118-14.118-9.412-22.118-9.412-4.235 0-8.471 0.941-12.706 2.824-12.235 5.176-19.765 16-19.765 29.647v94.118c0 31.529-25.412 56.941-56.941 56.941h-120.941c-31.059 0-56.471-25.412-56.471-56.941v-95.059c0-13.176-7.529-24.471-19.765-29.647-4.235-1.412-8.471-2.353-12.706-2.353-8.471 0-16 3.294-22.118 9.412l-67.294 67.294c-10.353 10.353-24.941 16.471-40 16.471s-30.118-6.118-40-16l-85.647-86.118c-10.824-10.353-16.941-24.941-16.941-40s6.118-29.176 16.471-40l67.294-67.294c9.412-9.412 12.235-22.588 7.059-34.824s-16-19.765-29.647-19.765h-94.588c-31.529 0-56.941-25.412-56.941-56.471v-120.941c0-31.059 25.412-56.941 56.941-56.941h95.059c13.176 0 24.471-7.529 29.647-19.765s2.353-25.412-7.059-34.824l-67.294-67.294c-10.824-10.824-16.471-24.941-16.471-40s6.118-29.176 16.471-40l85.647-85.647c10.353-10.353 24.941-16 40-16s29.647 6.118 40 16l67.294 67.294c6.118 6.118 14.118 9.412 22.118 9.412 4.235 0 8.471-0.941 12.706-2.824 12.235-5.176 19.765-16 19.765-29.647v-95.059c0-31.059 25.412-56.941 56.941-56.941h120.941c31.059 0 56.941 25.412 56.941 56.941v95.059c0 13.176 7.529 24.471 19.765 29.647 4.235 1.882 8.471 2.824 12.706 2.824 8.471 0 16-3.294 22.118-9.412l67.294-67.294c10.353-10.353 24.941-16 40-16s30.118 5.647 40 16l85.647 85.647c10.824 10.824 16.471 24.941 16.471 40s-6.118 29.176-16.471 40l-67.294 67.294c-9.412 9.412-12.235 22.588-7.059 34.824s16 19.765 29.647 19.765h95.059c31.059 0 56.941 25.412 56.941 56.941v120.941c-0.471 31.059-25.882 56.471-56.941 56.471zM977.412 387.294c0-5.647-4.706-10.353-10.353-10.353h-95.059c-32.471 0-60.235-18.824-72.471-48.471-12.235-30.118-5.647-62.588 16.941-85.647l67.294-67.294c1.882-1.882 2.824-4.706 2.824-7.059 0-2.824-0.941-5.176-2.824-7.059l-85.647-85.647c-1.882-1.882-4.706-2.824-7.059-2.824-2.824 0-5.176 0.941-7.059 2.824l-67.294 67.294c-15.059 15.059-34.353 23.059-55.059 23.059-10.353 0-20.706-1.882-30.588-6.118-30.118-12.235-48.471-40-48.471-72.471v-95.059c0-5.647-4.706-10.353-10.353-10.353h-120.941c-5.647 0-10.353 4.706-10.353 10.353v95.059c0 32.471-18.353 60.235-48.471 72.471-9.882 4.235-20.235 6.118-30.588 6.118-20.706 0-40-8-55.059-23.059l-66.824-66.824c-1.882-1.882-4.706-2.824-7.059-2.824s-5.176 0.941-7.059 2.824l-85.647 85.647c-1.882 1.882-2.824 4.706-2.824 7.059 0 2.824 0.941 5.176 2.824 7.059l67.294 67.294c23.059 23.059 29.647 55.529 16.941 85.647-12.235 30.118-40 48.471-72.471 48.471h-95.059c-5.647 0-10.353 4.706-10.353 10.353v120.941c0 5.647 4.706 10.353 10.353 10.353h95.059c32.471 0 60.235 18.353 72.471 48.471 12.235 29.647 5.647 62.118-17.412 85.176l-66.824 67.294c-1.882 1.882-2.824 4.706-2.824 7.059 0 2.824 0.941 5.176 2.824 7.059l85.647 85.647c1.882 1.882 4.706 2.824 7.059 2.824s5.176-0.941 7.059-2.824l67.294-66.824c15.059-15.059 34.353-23.529 55.059-23.529 10.353 0 20.706 1.882 30.588 6.118 29.647 12.706 48.471 40.471 48.471 72.941v94.588c0 5.647 4.706 10.353 10.353 10.353h120.941c5.647 0 10.353-4.706 10.353-10.353v-95.059c0-32.471 18.353-60.235 48.471-72.471 9.882-4.235 20.235-6.118 30.588-6.118 20.706 0 40 8.471 55.059 23.059l67.294 67.294c1.882 1.882 4.706 2.824 7.059 2.824 2.824 0 5.176-0.941 7.059-2.824l85.647-85.647c1.882-1.882 2.824-4.706 2.824-7.059 0-2.824-0.941-5.176-2.824-7.059l-67.294-67.294c-23.059-23.059-29.647-55.529-16.941-85.647 12.235-30.118 40-48.471 72.471-48.471h95.059c5.647 0 10.353-4.706 10.353-10.353v-120.941zM512 621.647c-95.529 0-173.647-78.118-173.647-173.647s78.118-173.647 173.647-173.647c95.529 0 173.647 78.118 173.647 173.647s-77.647 173.647-173.647 173.647zM512 320.941c-70.118 0-127.059 56.941-127.059 127.059s56.941 127.059 127.059 127.059 127.059-56.941 127.059-127.059c0-70.118-56.941-127.059-127.059-127.059z" />
<glyph unicode="&#xe91c;" glyph-name="My-applications-ico" horiz-adv-x="742" d="M721.345 960h-701.030c-11.018 0-20.315-9.297-20.315-20.315v-983.026c0-11.362 9.297-20.315 20.315-20.315h533.003c5.509 0 10.674 2.066 14.461 5.853l168.027 168.027c3.787 3.787 5.853 8.952 5.853 14.461v814.999c0.344 11.018-8.952 20.315-20.315 20.315zM573.977 5.552v98.475h98.475l-98.475-98.475zM701.030 145.001h-147.712c0 0 0 0 0 0-5.509 0-10.674-2.066-14.461-5.853s-5.853-8.952-5.853-14.461v-147.712h-492.374v942.397h660.401v-774.37zM144.269 685.235c3.787-3.787 8.952-6.198 14.117-6.198s10.674 2.066 14.461 5.853l74.373 74.373c7.919 7.919 7.919 21.003 0 28.923s-21.003 7.919-28.923 0l-59.911-59.911-14.806 15.15c-7.919 7.919-21.003 7.919-28.923 0s-7.919-21.003 0-28.923l29.611-29.267zM605.654 706.927h7.231c11.362 0 20.315 9.297 20.315 20.315 0 11.362-9.297 20.315-20.315 20.315h-7.231c-11.362 0-20.315-9.297-20.315-20.315-0.344-11.018 8.952-20.315 20.315-20.315zM311.952 706.927h228.282c11.362 0 20.315 9.297 20.315 20.315 0 11.362-9.297 20.315-20.315 20.315h-228.282c-11.362 0-20.315-9.297-20.315-20.315-0.344-11.018 8.952-20.315 20.315-20.315zM144.269 487.597c3.787-3.787 8.952-5.853 14.461-5.853s10.674 2.066 14.461 5.853l74.373 74.373c7.919 7.919 7.919 21.003 0 28.923s-21.003 7.919-28.923 0l-60.256-59.911-14.806 14.806c-7.919 7.919-21.003 7.919-28.923 0s-7.919-21.003 0-28.923l29.611-29.267zM311.952 509.633h300.933c11.362 0 20.315 9.297 20.315 20.315s-9.297 20.315-20.315 20.315h-300.933c-11.362 0-20.315-9.297-20.315-20.315s8.952-20.315 20.315-20.315zM144.269 290.991c3.787-3.787 8.952-5.853 14.461-5.853s10.674 2.066 14.461 5.853l74.373 74.373c7.919 7.919 7.919 21.003 0 28.923s-21.003 7.919-28.923 0l-60.256-60.256-14.806 14.806c-7.919 7.919-21.003 7.919-28.923 0s-7.919-21.003 0-28.923l29.611-28.923zM311.952 312.683h300.933c11.362 0 20.315 9.297 20.315 20.315 0 11.362-9.297 20.315-20.315 20.315h-300.933c-11.362 0-20.315-9.297-20.315-20.315-0.344-11.362 8.952-20.315 20.315-20.315z" />
<glyph unicode="&#xe91d;" d="M1024 448c0-282.77-229.23-512-512-512s-512 229.23-512 512c0 282.77 229.23 512 512 512s512-229.23 512-512z" />
<glyph unicode="&#xe91e;" d="M716.117 684.772l-294.002-293.888-114.233 114.233-89.884-89.884 204.117-204.004 383.886 383.772-89.884 89.771z" />
</font>
</defs>
</svg>
